<svg xmlns="http://www.w3.org/2000/svg" width="128" height="128" viewBox="0 0 128 128">
  <defs>
    <linearGradient id="gold" x1="0.18" y1="0" x2="0.82" y2="1">
      <stop offset="0" stop-color="#ffe9a8"/>
      <stop offset="0.42" stop-color="#e0b34a"/>
      <stop offset="1" stop-color="#8a5f18"/>
    </linearGradient>
    <linearGradient id="goldEdge" x1="0" y1="0" x2="1" y2="1">
      <stop offset="0" stop-color="#fff3c8"/>
      <stop offset="1" stop-color="#c4922c"/>
    </linearGradient>
    <linearGradient id="cyan" x1="0" y1="0" x2="0" y2="1">
      <stop offset="0" stop-color="#9af8ff"/>
      <stop offset="1" stop-color="#33e6ff"/>
    </linearGradient>
    <radialGradient id="magGlow" cx="50%" cy="78%" r="40%">
      <stop offset="0" stop-color="#ff33cc" stop-opacity="0.55"/>
      <stop offset="1" stop-color="#ff33cc" stop-opacity="0"/>
    </radialGradient>
  </defs>
  <!-- navy tile, same contract as RetrowaveTheme BG_DEEP -->
  <rect width="128" height="128" rx="22" fill="#0f0f1e"/>
  <rect x="3" y="3" width="122" height="122" rx="20" fill="none" stroke="#16213e" stroke-width="6"/>
  <!-- epoch rings -->
  <g fill="none" stroke="#1e6f88" stroke-width="1.15" opacity="0.7">
    <circle cx="64" cy="58" r="46"/>
    <circle cx="64" cy="58" r="38"/>
    <circle cx="64" cy="58" r="30"/>
    <circle cx="64" cy="58" r="22"/>
  </g>
  <line x1="18" y1="58" x2="110" y2="58" stroke="#1e6f88" stroke-width="1" opacity="0.55"/>
  <line x1="64" y1="12" x2="64" y2="104" stroke="#1e6f88" stroke-width="1" opacity="0.55"/>
  <circle cx="64" cy="12" r="2.2" fill="#33e6ff"/>
  <circle cx="64" cy="104" r="2.2" fill="#33e6ff"/>
  <circle cx="18" cy="58" r="2.2" fill="#33e6ff"/>
  <circle cx="110" cy="58" r="2.2" fill="#33e6ff"/>
  <ellipse cx="64" cy="78" rx="36" ry="10" fill="url(#magGlow)"/>
  <!-- gold E (title-card, readable at 16px) -->
  <path fill="url(#gold)" stroke="url(#goldEdge)" stroke-width="1.2" stroke-linejoin="round" d="M34 28h62l-6 11H50v12h36l-5 10H50v13h40l-6 12H34z"/>
  <!-- cyan inner counters, matching wordmark OF ASCENDANCY -->
  <path fill="none" stroke="url(#cyan)" stroke-width="2.4" stroke-linecap="square" d="M52 36h32M52 57h26M52 79h34"/>
  <!-- magenta wordmark underline -->
  <rect x="38" y="98" width="52" height="3.2" rx="1.6" fill="#ff33cc"/>
  <rect x="46" y="96.2" width="36" height="1.6" rx="0.8" fill="#ff8ae0" opacity="0.7"/>
</svg>
